<?xml version="1.0" standalone="no"?>
<!DOCTYPE svg PUBLIC "-//W3C//DTD SVG 20010904//EN"
 "http://www.w3.org/TR/2001/REC-SVG-20010904/DTD/svg10.dtd">
<svg version="1.0" xmlns="http://www.w3.org/2000/svg"
 width="1109.000000pt" height="558.000000pt" viewBox="0 0 1109.000000 558.000000"
 preserveAspectRatio="xMidYMid meet">
<metadata>
Created by potrace 1.15, written by Peter Selinger 2001-2017
</metadata>
<g transform="translate(0.000000,558.000000) scale(0.100000,-0.100000)"
fill="#000000" stroke="none">
<path d="M888 5300 c-197 -35 -376 -157 -471 -320 -118 -203 -125 -426 -20
-640 74 -152 214 -277 376 -335 l62 -23 3 -159 2 -159 -82 -24 c-287 -82 -502
-305 -579 -600 -32 -120 -32 -300 0 -420 77 -295 292 -518 579 -600 l82 -24
-2 -159 -3 -159 -62 -23 c-250 -90 -432 -328 -450 -587 -18 -268 131 -528 368
-641 121 -58 181 -72 304 -71 183 1 337 66 470 199 205 205 257 495 136 759
-74 162 -228 298 -388 346 l-43 13 0 163 0 162 68 23 c134 44 238 106 337 200
l60 58 139 -81 138 -81 -9 -46 c-4 -25 -8 -98 -8 -161 1 -99 5 -126 29 -198
66 -196 216 -347 418 -420 67 -25 86 -27 218 -27 138 1 149 2 227 32 200 76
343 225 410 428 23 69 27 97 27 205 0 114 -2 132 -30 211 -124 349 -491 535
-839 425 -91 -29 -182 -80 -238 -134 l-38 -37 -52 29 c-29 16 -94 53 -145 83
-81 48 -93 58 -87 77 47 163 47 296 -2 501 -4 18 17 33 139 103 l143 82 40
-40 c133 -130 364 -194 565 -156 395 74 637 478 516 861 -35 111 -88 195 -176
279 -133 127 -250 176 -435 184 -102 4 -133 1 -201 -17 -228 -62 -413 -247
-475 -475 -18 -68 -21 -99 -17 -201 3 -66 8 -127 12 -136 6 -14 -20 -33 -127
-98 -74 -45 -139 -81 -144 -81 -5 0 -27 18 -48 41 -84 87 -217 167 -348 209
l-67 22 0 162 0 162 53 17 c177 56 336 217 404 409 38 107 44 283 14 393 -63
229 -234 403 -463 474 -77 23 -221 34 -290 21z m234 -378 c60 -30 120 -90 150
-150 31 -64 36 -171 12 -244 -23 -71 -118 -167 -188 -191 -63 -22 -159 -22
-222 0 -67 23 -164 120 -187 187 -21 61 -22 160 -2 216 30 84 107 163 192 195
59 22 186 15 245 -13z m1573 -904 c65 -34 119 -89 151 -155 21 -43 26 -67 26
-128 0 -132 -68 -237 -190 -292 -76 -35 -183 -35 -256 1 -258 126 -241 492 27
588 73 26 175 20 242 -14z m-1595 -709 c185 -42 338 -208 370 -401 42 -247
-127 -501 -370 -557 -58 -13 -172 -13 -230 0 -243 56 -412 310 -370 557 32
190 186 359 366 401 54 12 180 13 234 0z m1597 -1100 c194 -92 238 -350 86
-503 -21 -21 -60 -50 -88 -64 -43 -23 -63 -27 -135 -27 -73 0 -93 4 -142 28
-65 32 -121 90 -152 156 -32 71 -30 199 6 266 86 164 260 222 425 144z m-1601
-886 c70 -24 165 -120 188 -191 39 -115 8 -247 -75 -331 -66 -66 -119 -86
-224 -86 -105 0 -158 20 -224 86 -83 84 -114 216 -75 331 22 68 118 167 184
191 60 21 165 21 226 0z"/>
<path d="M7143 4075 c-175 -39 -282 -159 -313 -347 -5 -35 -10 -204 -10 -375
l0 -313 -55 0 -55 0 0 -155 0 -155 55 0 55 0 0 -540 0 -540 165 0 165 0 0 540
0 540 170 0 170 0 0 155 0 155 -171 0 -170 0 3 323 c3 289 5 325 21 355 38 70
131 78 254 22 l63 -29 -2 167 -3 166 -60 19 c-80 25 -204 30 -282 12z"/>
<path d="M3840 2850 l0 -1200 160 0 160 0 0 263 c0 263 0 264 23 285 13 12 26
22 29 22 3 0 106 -128 229 -285 l223 -285 209 0 c166 0 207 3 200 13 -6 6
-150 186 -321 399 l-311 388 301 292 301 293 -214 3 -213 2 -228 -227 -228
-228 0 733 0 732 -160 0 -160 0 0 -1200z"/>
<path d="M7730 2850 l0 -1200 165 0 165 0 0 268 c0 266 0 269 23 290 l22 21
225 -289 225 -289 208 0 c114 -1 207 1 207 5 0 3 -142 181 -315 397 -173 216
-315 395 -315 398 0 3 133 134 295 290 162 156 295 287 295 291 0 5 -95 8
-212 8 l-212 0 -223 -222 -223 -222 0 727 0 727 -165 0 -165 0 0 -1200z"/>
<path d="M4513 3840 c-51 -110 -93 -205 -93 -210 0 -6 14 -10 31 -10 27 0 32
5 51 50 l21 50 83 0 84 0 23 -47 c19 -42 27 -48 56 -51 29 -3 33 -1 27 15 -24
61 -180 403 -185 403 -3 0 -48 -90 -98 -200z"/>
<path d="M5209 3934 c-92 -197 -139 -301 -139 -308 0 -3 13 -6 30 -6 26 0 33
7 55 50 l25 50 83 0 83 0 21 -50 c19 -45 25 -50 52 -50 17 0 31 4 31 9 0 12
-171 393 -181 405 -5 5 -31 -40 -60 -100z"/>
<path d="M5584 4011 c-144 -65 -162 -268 -31 -358 49 -34 134 -43 190 -20 33
14 37 20 37 52 l0 37 -34 -21 c-40 -25 -105 -27 -147 -6 -95 50 -92 213 5 259
46 21 89 20 136 -4 l40 -20 0 35 c0 32 -4 38 -35 51 -47 19 -112 17 -161 -5z"/>
<path d="M4860 3820 l0 -200 30 0 30 0 0 79 0 80 48 7 c69 10 112 56 112 119
0 40 -5 52 -34 81 -33 33 -37 34 -110 34 l-76 0 0 -200z"/>
<path d="M5860 3820 l0 -200 30 0 30 0 0 95 0 95 85 0 85 0 0 -95 0 -95 30 0
30 0 0 200 0 200 -30 0 -30 0 0 -75 0 -75 -85 0 -85 0 0 75 0 75 -30 0 -30 0
0 -200z"/>
<path d="M6242 3823 l3 -198 110 0 110 0 3 28 3 27 -80 0 -81 0 0 65 0 65 75
0 75 0 0 30 0 30 -75 0 -75 0 0 45 0 44 78 3 c76 3 77 3 80 31 l3 27 -116 0
-115 0 2 -197z"/>
<path d="M5551 3054 c-223 -60 -400 -243 -467 -484 -15 -51 -19 -101 -19 -230
0 -145 3 -174 23 -240 39 -123 98 -225 176 -305 126 -126 267 -185 448 -185
150 0 261 42 401 150 l27 22 0 -66 0 -66 165 0 165 0 -2 693 -3 692 -160 0
-160 0 -3 -78 -3 -78 -50 45 c-111 100 -235 146 -388 145 -53 0 -120 -7 -150
-15z m386 -310 c144 -70 223 -217 223 -412 0 -136 -37 -238 -117 -323 -69 -74
-136 -103 -253 -107 -118 -5 -184 17 -259 84 -103 93 -146 212 -139 384 4 93
8 115 36 173 40 86 75 129 139 174 71 49 130 64 231 59 64 -3 95 -10 139 -32z"/>
<path d="M9446 3054 c-195 -47 -381 -225 -449 -431 -49 -150 -59 -282 -32
-438 30 -169 100 -301 219 -412 121 -113 249 -163 421 -163 144 0 260 40 373
129 28 23 54 41 57 41 3 0 5 -29 5 -65 l0 -65 160 0 160 0 0 695 0 695 -160 0
-160 0 0 -80 0 -81 -61 51 c-71 59 -156 104 -236 125 -71 19 -218 18 -297 -1z
m388 -313 c187 -92 270 -336 195 -576 -36 -119 -127 -213 -241 -251 -78 -26
-217 -16 -287 20 -197 101 -279 394 -173 620 72 154 195 230 360 222 68 -3 95
-10 146 -35z"/>
<path d="M10700 2121 c-86 -28 -142 -84 -166 -167 -32 -112 15 -226 115 -276
61 -31 134 -37 205 -16 59 18 121 84 140 149 20 66 20 82 1 147 -19 62 -63
115 -118 144 -44 22 -137 32 -177 19z m110 -42 c92 -21 150 -95 150 -190 0
-113 -70 -189 -180 -197 -119 -9 -201 63 -208 182 -8 118 60 195 188 215 3 0
25 -4 50 -10z"/>
<path d="M10690 1886 c0 -129 1 -136 20 -136 18 0 20 7 20 55 l0 56 43 -53
c24 -29 53 -54 65 -56 30 -5 28 3 -18 60 l-39 50 29 25 c22 18 30 34 30 57 0
46 -29 68 -95 74 l-55 4 0 -136z"/>
</g>
</svg>
